<svg width="500" height="500" viewBox="0 0 500 500" fill="none" xmlns="http://www.w3.org/2000/svg">
<ellipse cx="250" cy="250.5" rx="250" ry="245.5" fill="#3A444F"/>
<path d="M217.084 290.025C209.955 290.025 203.998 288.463 199.213 285.338C194.46 282.213 190.88 277.932 188.471 272.496C186.094 267.06 184.906 260.891 184.906 253.99V252.965C184.906 245.999 186.16 239.814 188.666 234.41C191.173 228.974 194.77 224.693 199.457 221.568C204.145 218.443 209.743 216.881 216.254 216.881C220.844 216.881 225.043 217.597 228.852 219.029C232.66 220.462 235.818 222.285 238.324 224.498V239.83H230.658L229.633 228.6C226.345 226.093 221.869 224.84 216.205 224.84C211.55 224.84 207.611 226.044 204.389 228.453C201.166 230.829 198.725 234.117 197.064 238.316C195.404 242.516 194.574 247.366 194.574 252.867V253.99C194.574 262.942 196.544 269.892 200.482 274.84C204.421 279.755 210.069 282.213 217.426 282.213C219.704 282.213 221.934 281.936 224.115 281.383C226.296 280.829 228.103 280.113 229.535 279.234L230.609 269.322H238.129V284.752C235.46 286.412 232.27 287.714 228.559 288.658C224.848 289.57 221.023 290.025 217.084 290.025ZM247.943 289V282.848L255.902 281.48V225.475L247.943 224.107V217.906H273.48V224.107L265.521 225.475V256.041L293.451 225.035L293.646 224.791L288.324 224.107V217.906H311.127V224.107L304.438 225.328L282.709 248.961L307.123 281.627L313.666 282.848V289H289.936V282.848L295.795 282.164L295.746 282.115L276.654 255.602L265.521 267.711V281.48L273.48 282.848V289H247.943Z" fill="#E0AE77"/>
<rect x="150" y="316" width="200" height="4" fill="#E0AE77"/>
</svg>
